name p10_grf_mean_speed_1.0
datacolumns 13
datarows 22
range 0.0000000000 0.2100000000
endheader
time	grf_x_l_mean	grf_x_l_var	grf_y_l_mean	grf_y_l_var	grf_z_l_mean	grf_z_l_var	grf_x_r_mean	grf_x_r_var	grf_y_r_mean	grf_y_r_var	grf_z_r_mean	grf_z_r_var
0.0000000000	83.7602918524	1.0000000000	1018.5007200877	1.0000000000	0.0000000000	0.0000000000	15.5548837948	1.0000000000	10.9580127862	1.0000000000	0.0000000000	0.0000000000
0.0100000000	91.8586847411	1.0000000000	1010.1334119521	1.0000000000	0.0000000000	0.0000000000	29.9185422222	1.0000000000	50.7214931857	1.0000000000	0.0000000000	0.0000000000
0.0200000000	102.3861205988	1.0000000000	995.8363648554	1.0000000000	0.0000000000	0.0000000000	40.0107190357	1.0000000000	116.8581343398	1.0000000000	0.0000000000	0.0000000000
0.0300000000	114.1305172684	1.0000000000	971.8910650437	1.0000000000	0.0000000000	0.0000000000	31.8851489208	1.0000000000	199.8261073486	1.0000000000	0.0000000000	0.0000000000
0.0400000000	125.1958867937	1.0000000000	934.2887505843	1.0000000000	0.0000000000	0.0000000000	8.3943794119	1.0000000000	289.8254857081	1.0000000000	0.0000000000	0.0000000000
0.0500000000	136.7786584273	1.0000000000	881.2435438653	1.0000000000	0.0000000000	0.0000000000	-16.2165592497	1.0000000000	381.7911691794	1.0000000000	0.0000000000	0.0000000000
0.0600000000	145.2342292842	1.0000000000	811.0507824100	1.0000000000	0.0000000000	0.0000000000	-39.1318332764	1.0000000000	470.8129117736	1.0000000000	0.0000000000	0.0000000000
0.0700000000	148.8556317618	1.0000000000	722.9592113696	1.0000000000	0.0000000000	0.0000000000	-57.7765716592	1.0000000000	551.4531914525	1.0000000000	0.0000000000	0.0000000000
0.0800000000	146.3961974790	1.0000000000	619.5706682072	1.0000000000	0.0000000000	0.0000000000	-71.1323557872	1.0000000000	622.8925822207	1.0000000000	0.0000000000	0.0000000000
0.0900000000	133.5771976275	1.0000000000	504.6718644329	1.0000000000	0.0000000000	0.0000000000	-83.2061064282	1.0000000000	686.5640335496	1.0000000000	0.0000000000	0.0000000000
0.1000000000	112.3512789107	1.0000000000	385.4420246839	1.0000000000	0.0000000000	0.0000000000	-91.4711824538	1.0000000000	743.7411307616	1.0000000000	0.0000000000	0.0000000000
0.1100000000	82.6184072688	1.0000000000	273.0368225558	1.0000000000	0.0000000000	0.0000000000	-97.0388051231	1.0000000000	797.5966719150	1.0000000000	0.0000000000	0.0000000000
0.1200000000	49.2194345069	1.0000000000	177.2464525075	1.0000000000	0.0000000000	0.0000000000	-101.2623751132	1.0000000000	850.8542892237	1.0000000000	0.0000000000	0.0000000000
0.1300000000	20.3246931180	1.0000000000	104.1554701556	1.0000000000	0.0000000000	0.0000000000	-101.8811022577	1.0000000000	903.5255911798	1.0000000000	0.0000000000	0.0000000000
0.1400000000	-1.0485989233	1.0000000000	55.2099008030	1.0000000000	0.0000000000	0.0000000000	-101.0684816546	1.0000000000	953.4287280930	1.0000000000	0.0000000000	0.0000000000
0.1500000000	-11.0052707143	1.0000000000	25.4923509513	1.0000000000	0.0000000000	0.0000000000	-98.3606416133	1.0000000000	995.8136989993	1.0000000000	0.0000000000	0.0000000000
0.1600000000	-12.1028293193	1.0000000000	8.9336021641	1.0000000000	0.0000000000	0.0000000000	-93.5005769239	1.0000000000	1026.4384997077	1.0000000000	0.0000000000	0.0000000000
0.1700000000	-8.9852360952	1.0000000000	1.2889673189	1.0000000000	0.0000000000	0.0000000000	-87.8893812532	1.0000000000	1043.3288365076	1.0000000000	0.0000000000	0.0000000000
0.1800000000	0.0000000000	1.0000000000	0.0000000000	1.0000000000	0.0000000000	0.0000000000	-80.3808570700	1.0000000000	1046.4545550208	1.0000000000	0.0000000000	0.0000000000
0.1900000000	0.0000000000	1.0000000000	0.0000000000	1.0000000000	0.0000000000	0.0000000000	-72.3504393494	1.0000000000	1037.0406579927	1.0000000000	0.0000000000	0.0000000000
0.2000000000	0.0000000000	1.0000000000	0.0000000000	1.0000000000	0.0000000000	0.0000000000	-63.7884872056	1.0000000000	1017.1246546800	1.0000000000	0.0000000000	0.0000000000
0.2100000000	0.4639967828	1.0000000000	0.0520863035	1.0000000000	0.0000000000	0.0000000000	-54.7854771898	1.0000000000	990.6447508438	1.0000000000	0.0000000000	0.0000000000
